<svg width="525" height="459" viewBox="0 0 525 459" fill="none" xmlns="http://www.w3.org/2000/svg">
<g clip-path="url(#clip0_1882_9240)">
<path d="M366.925 451.646L358.968 451.645L355.183 420.954L366.926 420.955L366.925 451.646Z" fill="#FFB6B6"/>
<path d="M339.664 451.466C339.416 451.883 339.285 453.23 339.285 453.715C339.285 455.206 340.494 456.415 341.986 456.415H366.627C367.645 456.415 368.47 455.591 368.47 454.573V453.547C368.47 453.547 369.689 450.464 367.179 446.663C367.179 446.663 364.06 449.639 359.399 444.978L358.024 442.488L348.075 449.765L342.561 450.443C341.354 450.592 340.284 450.42 339.664 451.466Z" fill="#2F2E41"/>
<path d="M450.921 441.692L443.65 444.924L427.724 418.417L438.455 413.647L450.921 441.692Z" fill="#FFB6B6"/>
<path d="M425.938 452.602C425.881 453.084 426.309 454.368 426.506 454.811C427.112 456.174 428.708 456.788 430.07 456.182L452.587 446.172C453.517 445.758 453.935 444.669 453.522 443.74L453.105 442.802C453.105 442.802 452.966 439.49 449.129 437.036C449.129 437.036 447.488 441.023 441.336 438.657L439.068 436.94L432.933 447.631L428.17 450.492C427.127 451.117 426.08 451.395 425.938 452.602Z" fill="#2F2E41"/>
<path d="M349.632 259.605L342.558 274.462L354.584 428.684H369.624L375.807 327.52L429.785 428.684H448.234L420.376 356.525L401.275 262.435L349.632 259.605Z" fill="#2F2E41"/>
<path d="M387.512 164.331H368.857L362.016 175.066L346.584 182.447L349.939 228.742L348.256 262.497L350.562 262.43C367.025 261.95 383.48 264.628 398.759 270.779C402.678 272.358 406.787 273.238 410.324 272.354C410.324 272.354 408.982 266.986 407.64 265.644C406.298 264.302 405.627 263.193 406.298 262.406C406.969 261.619 408.311 260.948 406.969 259.606C405.627 258.264 405.627 256.573 405.627 256.573L401.602 226.729L409.653 184.46L392.879 175.066L387.512 164.331Z" fill="#00418b"/>
<path d="M419.568 222.859L419.059 262.452L409.207 297.747L401.332 294.81L404.829 262.458L404.369 218.678L419.568 222.859Z" fill="#FFB6B6"/>
<path d="M409.174 303.439C410.098 298.364 408.404 293.805 405.39 293.256C402.377 292.707 399.185 296.377 398.261 301.452C397.337 306.527 399.031 311.086 402.044 311.635C405.058 312.184 408.249 308.514 409.174 303.439Z" fill="#FFB6B6"/>
<path d="M405.627 182.446C405.627 182.446 416.742 184.169 416.888 193.707C417.033 203.246 427.768 218.678 421.059 230.755L403.614 233.438L394.221 199.22L404.956 181.104" fill="#00418b"/>
<path d="M354.891 215.885L332.74 248.706L305.136 272.807L300.164 266.029L320.84 240.902L344.48 204.05L354.891 215.885Z" fill="#FFB6B6"/>
<path d="M301.985 277.546C305.542 273.81 306.628 269.07 304.41 266.957C302.192 264.845 297.51 266.161 293.952 269.897C290.395 273.633 289.309 278.373 291.527 280.486C293.745 282.598 298.427 281.282 301.985 277.546Z" fill="#FFB6B6"/>
<path d="M365.413 174.452C365.413 174.452 373.761 181.991 368.648 190.045C363.535 198.099 364.042 216.891 351.805 223.305L335.749 215.976C337.102 202.745 337.891 189.027 346.673 182.216L365.589 172.962" fill="#00418b"/>
<path d="M375.289 161.565C384.508 161.565 391.981 154.092 391.981 144.873C391.981 135.655 384.508 128.182 375.289 128.182C366.071 128.182 358.598 135.655 358.598 144.873C358.598 154.092 366.071 161.565 375.289 161.565Z" fill="#FFB6B6"/>
<path d="M387.549 158.588C388.468 158.745 389.548 156.517 390.579 154.346C392.738 149.802 394.111 146.914 394.215 142.831C394.304 139.352 393.338 140.265 392.397 132.529C392.087 129.977 387.728 129.982 386.841 128.77C385.342 126.724 387.641 125.88 383.913 124.65C376.929 122.347 373.77 125.925 369.335 126.233C369.223 126.241 367.024 128.391 365.796 128.502C363.645 128.697 360.541 128.362 359.149 125.084C357.848 122.019 356.986 130.976 358.149 132.084C359.137 133.025 360.84 135.387 360.883 135.559C360.932 135.753 356.834 131.213 356.149 133.084C355.657 134.431 357.207 141.359 358.459 141.619C359.506 141.837 362.067 138.386 361.489 139.801C360.149 143.084 368.207 145.179 377.852 138.589C378.194 138.355 377.871 138.728 379.064 141.619C380.569 145.266 380.909 145.463 380.882 146.468C380.826 148.642 379.193 149.282 379.67 150.71C380.057 151.866 381.567 152.762 382.701 152.528C383.98 152.264 384.199 150.682 385.125 150.71C385.918 150.734 386.859 151.928 386.943 153.134C387.119 155.674 383.359 156.372 382.701 159.8C382.329 161.735 386.704 158.444 387.549 158.588Z" fill="#2F2E41"/>
<path d="M255.412 457.176H111.987C90.4751 457.176 72.9736 439.675 72.9736 418.162V39.0133C72.9736 17.5014 90.4751 0 111.987 0H255.412C276.923 0 294.425 17.5014 294.425 39.0133C297.094 191.268 301.647 361.769 294.425 418.162C294.425 439.675 276.923 457.176 255.412 457.176Z" fill="#3F3D56"/>
<path d="M296.425 139.464C295.515 139.464 294.774 140.204 294.774 141.114V193.929C294.774 194.839 295.515 195.579 296.425 195.579C297.335 195.579 298.075 194.839 298.075 193.929V141.114C298.075 140.204 297.335 139.464 296.425 139.464Z" fill="#3F3D56"/>
<path d="M290.712 39.0131V418.155C290.712 436.88 276.138 452.196 257.711 453.384H257.702C257.43 453.401 257.158 453.417 256.877 453.426C256.39 453.45 255.903 453.459 255.408 453.459C255.408 453.459 253.593 453.327 250.275 453.079C246.925 452.832 242.048 452.46 235.966 451.973C234.142 451.833 232.219 451.676 230.189 451.511C226.146 451.181 221.706 450.818 216.944 450.405C215.046 450.249 213.082 450.075 211.077 449.902C200.828 449.019 189.349 447.987 177.243 446.816C175.196 446.626 173.133 446.428 171.054 446.221C170.509 446.164 76.6875 422.579 76.6875 418.155V39.0131C76.6875 19.5131 92.4906 3.70996 111.991 3.70996H133.067C136.434 3.70996 139.141 6.33418 139.43 9.69286C139.454 9.91569 139.479 10.1385 139.52 10.3613C140.131 13.7365 143.226 16.0884 146.658 16.0884H220.741C224.173 16.0884 227.268 13.7365 227.879 10.3613C227.92 10.1385 227.945 9.91569 227.97 9.69286C228.258 6.33418 230.965 3.70996 234.332 3.70996H255.408C274.908 3.70996 290.712 19.5131 290.712 39.0131Z" fill="white"/>
<path d="M72.1485 99.8525C71.2382 99.8525 70.498 100.593 70.498 101.503V114.707C70.498 115.617 71.2383 116.357 72.1485 116.357C73.0587 116.357 73.799 115.617 73.799 114.707V101.503C73.799 100.593 73.0587 99.8525 72.1485 99.8525Z" fill="#3F3D56"/>
<path d="M72.1485 139.464C71.2382 139.464 70.498 140.204 70.498 141.114V166.696C70.498 167.607 71.2383 168.347 72.1485 168.347C73.0587 168.347 73.799 167.607 73.799 166.696V141.114C73.799 140.204 73.0587 139.464 72.1485 139.464Z" fill="#3F3D56"/>
<path d="M72.1485 175.773C71.2382 175.773 70.498 176.514 70.498 177.424V203.006C70.498 203.916 71.2383 204.656 72.1485 204.656C73.0587 204.656 73.799 203.916 73.799 203.006V177.424C73.799 176.514 73.0587 175.773 72.1485 175.773Z" fill="#3F3D56"/>
<path d="M132.493 9.49023H100.929C100.758 9.49023 100.619 9.62912 100.619 9.80044V13.3062C100.619 13.4775 100.758 13.6164 100.929 13.6164H132.493C132.664 13.6164 132.803 13.4775 132.803 13.3062V9.80044C132.803 9.62912 132.664 9.49023 132.493 9.49023Z" fill="#E6E6E6"/>
<path d="M239.547 13.6165C241.37 13.6165 242.848 12.1386 242.848 10.3156C242.848 8.49252 241.37 7.01465 239.547 7.01465C237.724 7.01465 236.246 8.49252 236.246 10.3156C236.246 12.1386 237.724 13.6165 239.547 13.6165Z" fill="#E6E6E6"/>
<path d="M248.625 13.6165C250.448 13.6165 251.926 12.1386 251.926 10.3156C251.926 8.49252 250.448 7.01465 248.625 7.01465C246.802 7.01465 245.324 8.49252 245.324 10.3156C245.324 12.1386 246.802 13.6165 248.625 13.6165Z" fill="#E6E6E6"/>
<path d="M257.702 13.6165C259.525 13.6165 261.003 12.1386 261.003 10.3156C261.003 8.49252 259.525 7.01465 257.702 7.01465C255.879 7.01465 254.401 8.49252 254.401 10.3156C254.401 12.1386 255.879 13.6165 257.702 13.6165Z" fill="#E6E6E6"/>
<path d="M258.752 303.726C258.752 266.1 226.951 245.402 190.625 235.599C144.052 223.03 109.943 248.464 122.499 303.726C130.835 340.416 173.147 395.171 190.625 361.852C210.625 323.726 258.752 341.351 258.752 303.726Z" fill="#F2F2F2"/>
<path d="M0 457.276C0 457.936 0.53003 458.466 1.19006 458.466H523.48C524.14 458.466 524.67 457.936 524.67 457.276C524.67 456.616 524.14 456.086 523.48 456.086H1.19006C0.53003 456.086 0 456.616 0 457.276Z" fill="#CCCCCC"/>
<path d="M167.21 297.009L158.98 293.11C162.356 297.821 165.265 305.178 166.822 311.033C169.458 305.579 173.709 298.907 177.916 294.921L169.217 297.159C174.577 270.891 194.737 252.033 217.822 252.033L218.149 251.084C194.035 251.084 172.683 269.68 167.21 297.009Z" fill="#3F3D56"/>
<path d="M205.09 337.033H153.09C150.884 337.033 149.09 335.239 149.09 333.033C149.09 330.828 150.884 329.033 153.09 329.033H205.09C207.295 329.033 209.09 330.828 209.09 333.033C209.09 335.239 207.295 337.033 205.09 337.033Z" fill="#00418b"/>
<path d="M253.7 129.726V235.726C253.7 245.1 246.074 252.726 236.7 252.726H130.7C121.326 252.726 113.7 245.1 113.7 235.726V129.726C113.7 120.352 121.326 112.726 130.7 112.726H236.7C246.074 112.726 253.7 120.352 253.7 129.726ZM236.7 250.726C244.984 250.726 251.7 244.01 251.7 235.726V182.285C251.7 144.973 221.453 114.726 184.141 114.726H130.7C122.416 114.726 115.7 121.441 115.7 129.726V235.726C115.7 244.01 122.416 250.726 130.7 250.726H236.7Z" fill="#3F3D56"/>
<path d="M197.811 156.018H163.59C162.727 156.018 162.025 155.316 162.025 154.453C162.025 153.59 162.727 152.889 163.59 152.889H197.811C198.673 152.889 199.375 153.59 199.375 154.453C199.375 155.316 198.673 156.018 197.811 156.018Z" fill="#3F3D56"/>
<path d="M197.811 189.381H163.59C162.727 189.381 162.025 188.679 162.025 187.816C162.025 186.954 162.727 186.252 163.59 186.252H197.811C198.673 186.252 199.375 186.954 199.375 187.816C199.375 188.679 198.673 189.381 197.811 189.381Z" fill="#3F3D56"/>
<path d="M180.811 235.381H146.59C145.727 235.381 145.025 234.679 145.025 233.816C145.025 232.954 145.727 232.252 146.59 232.252H180.811C181.673 232.252 182.375 232.954 182.375 233.816C182.375 234.679 181.673 235.381 180.811 235.381Z" fill="#3F3D56"/>
<path d="M216.174 172.71H145.227C144.364 172.71 143.662 172.008 143.662 171.145C143.662 170.283 144.364 169.581 145.227 169.581H216.174C217.036 169.581 217.738 170.283 217.738 171.145C217.738 172.008 217.036 172.71 216.174 172.71Z" fill="#3F3D56"/>
</g>
<defs>
<clipPath id="clip0_1882_9240">
<rect width="524.67" height="458.466" fill="white"/>
</clipPath>
</defs>
</svg>
